<svg id="visual" viewBox="0 0 960 540" width="960" height="540" xmlns="http://www.w3.org/2000/svg" xmlns:xlink="http://www.w3.org/1999/xlink" version="1.1"><path d="M0 102L20 106.8C40 111.7 80 121.3 120 125.2C160 129 200 127 240 121C280 115 320 105 360 106C400 107 440 119 480 125.2C520 131.3 560 131.7 600 129.7C640 127.7 680 123.3 720 122.5C760 121.7 800 124.3 840 120.7C880 117 920 107 940 102L960 97L960 0L940 0C920 0 880 0 840 0C800 0 760 0 720 0C680 0 640 0 600 0C560 0 520 0 480 0C440 0 400 0 360 0C320 0 280 0 240 0C200 0 160 0 120 0C80 0 40 0 20 0L0 0Z" fill="#6943e4"></path><path d="M0 71L20 72.3C40 73.7 80 76.3 120 77.5C160 78.7 200 78.3 240 79.3C280 80.3 320 82.7 360 86C400 89.3 440 93.7 480 95.7C520 97.7 560 97.3 600 95.2C640 93 680 89 720 92C760 95 800 105 840 104.3C880 103.7 920 92.3 940 86.7L960 81L960 0L940 0C920 0 880 0 840 0C800 0 760 0 720 0C680 0 640 0 600 0C560 0 520 0 480 0C440 0 400 0 360 0C320 0 280 0 240 0C200 0 160 0 120 0C80 0 40 0 20 0L0 0Z" fill="#2e72f6"></path><path d="M0 86L20 82.8C40 79.7 80 73.3 120 67C160 60.7 200 54.3 240 52.8C280 51.3 320 54.7 360 58.2C400 61.7 440 65.3 480 67.8C520 70.3 560 71.7 600 68.2C640 64.7 680 56.3 720 54.3C760 52.3 800 56.7 840 56.7C880 56.7 920 52.3 940 50.2L960 48L960 0L940 0C920 0 880 0 840 0C800 0 760 0 720 0C680 0 640 0 600 0C560 0 520 0 480 0C440 0 400 0 360 0C320 0 280 0 240 0C200 0 160 0 120 0C80 0 40 0 20 0L0 0Z" fill="#0093f8"></path><path d="M0 60L20 60.2C40 60.3 80 60.7 120 57C160 53.3 200 45.7 240 44.3C280 43 320 48 360 50.2C400 52.3 440 51.7 480 51C520 50.3 560 49.7 600 51.2C640 52.7 680 56.3 720 57C760 57.7 800 55.3 840 56C880 56.7 920 60.3 940 62.2L960 64L960 0L940 0C920 0 880 0 840 0C800 0 760 0 720 0C680 0 640 0 600 0C560 0 520 0 480 0C440 0 400 0 360 0C320 0 280 0 240 0C200 0 160 0 120 0C80 0 40 0 20 0L0 0Z" fill="#00acea"></path><path d="M0 35L20 34.7C40 34.3 80 33.7 120 32.2C160 30.7 200 28.3 240 26C280 23.7 320 21.3 360 20.2C400 19 440 19 480 19.7C520 20.3 560 21.7 600 20.3C640 19 680 15 720 14.7C760 14.3 800 17.7 840 19.8C880 22 920 23 940 23.5L960 24L960 0L940 0C920 0 880 0 840 0C800 0 760 0 720 0C680 0 640 0 600 0C560 0 520 0 480 0C440 0 400 0 360 0C320 0 280 0 240 0C200 0 160 0 120 0C80 0 40 0 20 0L0 0Z" fill="#07bccf"></path></svg>